<svg width="128" height="128" viewBox="0 0 128 128" fill="none" xmlns="http://www.w3.org/2000/svg">
  <rect width="128" height="128" rx="24" fill="#5f67ee"/>
  <path d="M40 85C35.5817 85 32 81.4183 32 77C32 72.5817 35.5817 69 40 69C44.4183 69 48 72.5817 48 77C48 81.4183 44.4183 85 40 85Z" fill="white"/>
  <path d="M64 85C59.5817 85 56 81.4183 56 77C56 72.5817 59.5817 69 64 69C68.4183 69 72 72.5817 72 77C72 81.4183 68.4183 85 64 85Z" fill="white"/>
  <path d="M88 85C83.5817 85 80 81.4183 80 77C80 72.5817 83.5817 69 88 69C92.4183 69 96 72.5817 96 77C96 81.4183 92.4183 85 88 85Z" fill="white"/>
  <path d="M40 61C35.5817 61 32 57.4183 32 53C32 48.5817 35.5817 45 40 45C44.4183 45 48 48.5817 48 53C48 57.4183 44.4183 61 40 61Z" fill="white" opacity="0.7"/>
  <path d="M64 61C59.5817 61 56 57.4183 56 53C56 48.5817 59.5817 45 64 45C68.4183 45 72 48.5817 72 53C72 57.4183 68.4183 61 64 61Z" fill="white" opacity="0.7"/>
  <path d="M88 61C83.5817 61 80 57.4183 80 53C80 48.5817 83.5817 45 88 45C92.4183 45 96 48.5817 96 53C96 57.4183 92.4183 61 88 61Z" fill="white" opacity="0.7"/>
  <line x1="40" y1="61" x2="40" y2="69" stroke="white" stroke-width="2" opacity="0.5"/>
  <line x1="64" y1="61" x2="64" y2="69" stroke="white" stroke-width="2" opacity="0.5"/>
  <line x1="88" y1="61" x2="88" y2="69" stroke="white" stroke-width="2" opacity="0.5"/>
</svg>

